custom-analysis
version=1
nRows=5
nColumns=98
inDegrees=no

This file contains tibia displacement and acting force.

Units are S.I. units (seconds, meters, Newtons, ...)
Angles are in degrees.

endheader
time	APT	SIT	knee_angle	aACL_R_force	pACL_R_force	aPCL_R_force	pPCL_R_force	aMCL_R_force	mMCL_R_force	pMCL_R_force	aLCL_R_force	mLCL_R_force	pLCL_R_force	aPCL_L_force	pPCL_L_force	aMCL_L_force	aLCL_L_force	aACL_R_length	pACL_R_length	aPCL_R_length	pPCL_R_length	aMCL_R_length	mMCL_R_length	pMCL_R_length	aLCL_R_length	mLCL_R_length	pLCL_R_length	aPCL_L_length	pPCL_L_length	aMCL_L_length	aLCL_L_length	aACL_R_strain	pACL_R_strain	aPCL_R_strain	pPCL_R_strain	aMCL_R_strain	mMCL_R_strain	pMCL_R_strain	aLCL_R_strain	mLCL_R_strain	pLCL_R_strain	aPCL_L_strain	pPCL_L_strain	aMCL_L_strain	aLCL_L_strain	femur_lat_meniscii_r.femur_lat_r.force.X	femur_lat_meniscii_r.femur_lat_r.force.Y	femur_lat_meniscii_r.femur_lat_r.force.Z	femur_lat_meniscii_r.femur_lat_r.torque.X	femur_lat_meniscii_r.femur_lat_r.torque.Y	femur_lat_meniscii_r.femur_lat_r.torque.Z	femur_lat_meniscii_r.meniscus_lat_r.force.X	femur_lat_meniscii_r.meniscus_lat_r.force.Y	femur_lat_meniscii_r.meniscus_lat_r.force.Z	femur_lat_meniscii_r.meniscus_lat_r.torque.X	femur_lat_meniscii_r.meniscus_lat_r.torque.Y	femur_lat_meniscii_r.meniscus_lat_r.torque.Z	femur_med_meniscii_r.femur_med_r.force.X	femur_med_meniscii_r.femur_med_r.force.Y	femur_med_meniscii_r.femur_med_r.force.Z	femur_med_meniscii_r.femur_med_r.torque.X	femur_med_meniscii_r.femur_med_r.torque.Y	femur_med_meniscii_r.femur_med_r.torque.Z	femur_med_meniscii_r.meniscus_med_r.force.X	femur_med_meniscii_r.meniscus_med_r.force.Y	femur_med_meniscii_r.meniscus_med_r.force.Z	femur_med_meniscii_r.meniscus_med_r.torque.X	femur_med_meniscii_r.meniscus_med_r.torque.Y	femur_med_meniscii_r.meniscus_med_r.torque.Z	femur_med_tibia_r.tibia_upper_r.force.X	femur_med_tibia_r.tibia_upper_r.force.Y	femur_med_tibia_r.tibia_upper_r.force.Z	femur_med_tibia_r.tibia_upper_r.torque.X	femur_med_tibia_r.tibia_upper_r.torque.Y	femur_med_tibia_r.tibia_upper_r.torque.Z	femur_med_tibia_r.femur_med_r.force.X	femur_med_tibia_r.femur_med_r.force.Y	femur_med_tibia_r.femur_med_r.force.Z	femur_med_tibia_r.femur_med_r.torque.X	femur_med_tibia_r.femur_med_r.torque.Y	femur_med_tibia_r.femur_med_r.torque.Z	femur_lat_tibia_r.tibia_upper_r.force.X	femur_lat_tibia_r.tibia_upper_r.force.Y	femur_lat_tibia_r.tibia_upper_r.force.Z	femur_lat_tibia_r.tibia_upper_r.torque.X	femur_lat_tibia_r.tibia_upper_r.torque.Y	femur_lat_tibia_r.tibia_upper_r.torque.Z	femur_lat_tibia_r.femur_lat_r.force.X	femur_lat_tibia_r.femur_lat_r.force.Y	femur_lat_tibia_r.femur_lat_r.force.Z	femur_lat_tibia_r.femur_lat_r.torque.X	femur_lat_tibia_r.femur_lat_r.torque.Y	femur_lat_tibia_r.femur_lat_r.torque.Z	femur_lat_meniscii_force_r	femur_med_meniscii_force_r	femur_lat_tibia_force_r	femur_med_tibia_force_r
      0.00000000	      0.00000000	      0.00000000	     60.00037120	      0.00000000	      0.00000000	    752.32128654	    483.28700956	      1.06917208	      0.25845319	      0.00000000	      0.00000000	      0.00000000	      0.00000000	      0.00000000	      0.00000000	      0.00000001	      0.00000000	      0.02986505	      0.02298771	      0.03605571	      0.03334436	      0.06078718	      0.06016580	      0.05704266	      0.05146025	      0.04659915	      0.04191751	      0.01525851	      0.01651186	      0.06550154	      0.04489616	     -0.03678215	     -0.08264573	      0.15952289	      0.11565110	      0.01266396	      0.00622639	     -0.02869730	     -0.08069262	     -0.17257972	     -0.19917177	      0.00000079	     -0.32847694	      0.00000060	     -0.00000086	    162.46361221	     43.40722376	     -8.81566816	      2.63829690	      3.97702238	     66.23659341	   -162.46361221	    -43.40722376	      8.81566816	      0.93966844	     -4.44889540	     -2.62184904	      0.00000000	      0.00000000	      0.00000000	      0.00000000	      0.00000000	      0.00000000	      0.00000000	      0.00000000	      0.00000000	      0.00000000	      0.00000000	      0.00000000	     -0.73969542	     -0.42053770	      0.26277472	     -0.01119919	      0.01473616	     -0.00807317	      0.73969542	      0.42053770	     -0.26277472	      0.11432201	     -0.01222651	      0.30237424	  -2479.69463307	  -1514.75188479	   -831.80897442	     61.85775612	    -88.35029893	    -23.47259158	   2479.69463307	   1514.75188479	    831.80897442	   -376.79428040	     60.92950460	   1012.25984225	    168.39337389	      0.00000000	   3022.46007677	      0.89053457
      0.00069448	      0.00001136	     -0.00006498	     60.00037120	      0.00000000	      0.00000000	    789.40019561	    561.53877585	     97.27739277	     93.04694526	      0.00000000	      0.00000000	      0.00000000	      0.00000000	      0.00000000	      0.00000000	      0.00000001	      0.00000000	      0.02994986	      0.02307766	      0.03609175	      0.03337741	      0.06084206	      0.06021893	      0.05709213	      0.05151491	      0.04665252	      0.04196762	      0.01525851	      0.01651186	      0.06550154	      0.04489616	     -0.03404676	     -0.07905612	      0.16068199	      0.11675717	      0.01357826	      0.00711492	     -0.02785502	     -0.07971617	     -0.17163213	     -0.19821449	      0.00000079	     -0.32847694	      0.00000060	     -0.00000086	    103.61915512	    -31.30007729	   -101.83344667	     42.65295921	      1.42523325	     42.96946307	   -103.61915512	     31.30007729	    101.83344667	     -3.47129259	      0.27511545	     -3.62335158	      0.00000000	      0.00000000	      0.00000000	      0.00000000	      0.00000000	      0.00000000	      0.00000000	      0.00000000	      0.00000000	      0.00000000	      0.00000000	      0.00000000	      0.00000000	      0.00000000	      0.00000000	      0.00000000	      0.00000000	      0.00000000	      0.00000000	      0.00000000	      0.00000000	      0.00000000	      0.00000000	      0.00000000	  -1757.92035876	   -923.61600866	   -306.36144699	     32.02707811	    -53.87121927	    -21.25701246	   1757.92035876	    923.61600866	    306.36144699	   -146.49628360	     40.25432813	    719.14027265	    148.61586391	      0.00000000	   2009.28043224	      0.00000000
      0.00156547	      0.00005617	     -0.00020899	     60.00037120	      0.00000000	      0.00000000	    788.01599519	    534.51652564	     86.62778314	     79.73433164	      0.00000000	      0.00000000	      0.00000000	      0.00000000	      0.00000000	      0.00000000	      0.00000001	      0.00000000	      0.03015815	      0.02329511	      0.03615776	      0.03343576	      0.06096081	      0.06033205	      0.05719554	      0.05163225	      0.04676647	      0.04207248	      0.01525851	      0.01651186	      0.06550154	      0.04489616	     -0.02732891	     -0.07037852	      0.16280473	      0.11870926	      0.01555651	      0.00900683	     -0.02609414	     -0.07762003	     -0.16960879	     -0.19621118	      0.00000079	     -0.32847694	      0.00000060	     -0.00000086	    111.29988314	    -47.92055306	   -124.58025409	     52.38544059	      1.33415395	     46.31934368	   -111.29988314	     47.92055306	    124.58025409	     -4.48266548	      0.77918416	     -4.33595732	      0.00000000	      0.00000000	      0.00000000	      0.00000000	      0.00000000	      0.00000000	      0.00000000	      0.00000000	      0.00000000	      0.00000000	      0.00000000	      0.00000000	      0.00000000	      0.00000000	      0.00000000	      0.00000000	      0.00000000	      0.00000000	      0.00000000	      0.00000000	      0.00000000	      0.00000000	      0.00000000	      0.00000000	   -991.54902295	   -457.42030084	    -98.38483712	     14.41036509	    -28.23324796	    -13.86544135	    991.54902295	    457.42030084	     98.38483712	    -50.44442227	     21.94310846	    406.27114961	    173.79379478	      0.00000000	   1096.39517178	      0.00000000
      0.00243645	      0.00012813	     -0.00029785	     60.00037120	      0.00000000	      0.00000000	    755.01249933	    447.54371110	     18.92194470	     10.74286374	      0.00000000	      0.00000000	      0.00000000	      0.00000000	      0.00000000	      0.00000000	      0.00000001	      0.00000000	      0.03034591	      0.02348644	      0.03616058	      0.03343085	      0.06102373	      0.06038716	      0.05723982	      0.05169147	      0.04682192	      0.04211735	      0.01525851	      0.01651186	      0.06550154	      0.04489616	     -0.02127333	     -0.06274297	      0.16289540	      0.11854506	      0.01660465	      0.00992859	     -0.02534014	     -0.07656209	     -0.16862421	     -0.19535391	      0.00000079	     -0.32847694	      0.00000060	     -0.00000086	    156.03094984	    -49.06669687	   -134.46244509	     56.49589091	      2.27645776	     64.67423750	   -156.03094984	     49.06669687	    134.46244509	     -4.77328502	     -0.18257556	     -5.41912403	      0.00000000	      0.00000000	      0.00000000	      0.00000000	      0.00000000	      0.00000000	      0.00000000	      0.00000000	      0.00000000	      0.00000000	      0.00000000	      0.00000000	      0.00000000	      0.00000000	      0.00000000	      0.00000000	      0.00000000	      0.00000000	      0.00000000	      0.00000000	      0.00000000	      0.00000000	      0.00000000	      0.00000000	   -619.34636048	   -266.31668775	    -44.01450267	      8.06428878	    -17.22661342	     -9.17736394	    619.34636048	    266.31668775	     44.01450267	    -23.87566662	     13.54257414	    253.95669356	    211.73886556	      0.00000000	    675.61214380	      0.00000000
      0.00363927	      0.00024789	     -0.00028283	     60.00037120	      0.00000000	      0.00000000	    701.41669393	    344.34678407	    -58.78817436	    -66.92037718	      0.00000000	      0.00000000	      0.00000000	      0.00000000	      0.00000000	      0.00000000	      0.00000001	      0.00000000	      0.03049303	      0.02362773	      0.03604568	      0.03330793	      0.06098052	      0.06033226	      0.05717209	      0.05164307	      0.04676907	      0.04205126	      0.01525851	      0.01651186	      0.06550154	      0.04489616	     -0.01652847	     -0.05710472	      0.15920042	      0.11443245	      0.01588493	      0.00901027	     -0.02649343	     -0.07742666	     -0.16956270	     -0.19661661	      0.00000079	     -0.32847694	      0.00000060	     -0.00000086	    219.62991462	    -28.14188418	   -124.49087921	     51.94376388	      4.03675194	     90.60023398	   -219.62991462	     28.14188418	    124.49087921	     -3.96979535	     -2.47193465	     -6.31709796	      0.11976694	     -0.03690935	     -0.10440943	      0.04166306	     -0.00247015	      0.04866409	     -0.11976694	      0.03690935	      0.10440943	     -0.00149018	      0.00408508	     -0.00315310	     -5.39634656	     -2.21329504	      4.06231424	     -0.12456461	      0.15079482	     -0.08330721	      5.39634656	      2.21329504	     -4.06231424	      1.70472660	     -0.09141996	      2.21473164	   -554.96544441	   -235.61911649	    -50.07442143	      7.49475390	    -15.90084519	     -8.24223036	    554.96544441	    235.61911649	     50.07442143	    -25.73838662	     12.25101788	    227.60681837	    254.02213299	      0.16311882	    604.98798354	      7.10785679
